<?xml version="1.0" encoding="UTF-8" standalone="no"?>
<!DOCTYPE svg PUBLIC "-//W3C//DTD SVG 1.1//EN" "http://www.w3.org/Graphics/SVG/1.1/DTD/svg11.dtd">
<svg width="100%" height="100%" viewBox="0 0 1156 244" version="1.1" xmlns="http://www.w3.org/2000/svg" xmlns:xlink="http://www.w3.org/1999/xlink" xml:space="preserve" xmlns:serif="http://www.serif.com/" style="fill-rule:evenodd;clip-rule:evenodd;stroke-linejoin:round;stroke-miterlimit:2;">
    <g transform="matrix(1,0,0,1,-1308.17,-386.256)">
        <g transform="matrix(1,0,0,1,-267.29,-1447.59)">
            <g transform="matrix(0.707293,0,0,0.707293,1501.32,1584.85)">
                <g transform="matrix(197.496,0,0,197.496,543.795,593.233)">
                    <path d="M0.029,-0L0.192,-0L0.332,-0.7L0.169,-0.7L0.029,-0Z" style="fill:white;fill-rule:nonzero;"/>
                </g>
                <g transform="matrix(197.496,0,0,197.496,608.574,593.233)">
                    <path d="M0.397,0.012C0.517,0.012 0.619,-0.023 0.693,-0.109L0.597,-0.207C0.545,-0.151 0.482,-0.126 0.411,-0.126C0.285,-0.126 0.215,-0.196 0.215,-0.302C0.215,-0.453 0.317,-0.574 0.475,-0.574C0.552,-0.574 0.608,-0.545 0.644,-0.492L0.761,-0.588C0.711,-0.668 0.61,-0.712 0.486,-0.712C0.226,-0.712 0.051,-0.531 0.051,-0.292C0.051,-0.112 0.183,0.012 0.397,0.012Z" style="fill:white;fill-rule:nonzero;"/>
                </g>
                <g transform="matrix(197.496,0,0,197.496,752.153,593.233)">
                    <path d="M0.273,0.012C0.468,0.012 0.596,-0.081 0.596,-0.226C0.596,-0.441 0.248,-0.381 0.249,-0.496C0.249,-0.546 0.304,-0.582 0.398,-0.582C0.467,-0.582 0.535,-0.564 0.588,-0.528L0.649,-0.652C0.588,-0.691 0.501,-0.712 0.407,-0.712C0.213,-0.712 0.087,-0.619 0.087,-0.475C0.087,-0.252 0.434,-0.312 0.434,-0.2C0.434,-0.149 0.378,-0.118 0.289,-0.118C0.206,-0.118 0.122,-0.144 0.058,-0.191L-0.008,-0.066C0.051,-0.022 0.159,0.012 0.273,0.012Z" style="fill:white;fill-rule:nonzero;"/>
                </g>
                <g transform="matrix(197.496,0,0,197.496,878.155,593.233)">
                    <path d="M0.392,0.012C0.65,0.012 0.825,-0.169 0.825,-0.408C0.825,-0.588 0.697,-0.712 0.484,-0.712C0.226,-0.712 0.051,-0.531 0.051,-0.292C0.051,-0.112 0.179,0.012 0.392,0.012ZM0.406,-0.126C0.283,-0.126 0.215,-0.197 0.215,-0.301C0.215,-0.449 0.312,-0.574 0.47,-0.574C0.593,-0.574 0.661,-0.503 0.661,-0.399C0.661,-0.251 0.564,-0.126 0.406,-0.126Z" style="fill:white;fill-rule:nonzero;"/>
                </g>
                <g transform="matrix(197.496,0,0,197.496,1044.84,593.233)">
                    <path d="M0.617,-0.361C0.691,-0.392 0.742,-0.452 0.742,-0.54C0.742,-0.643 0.658,-0.7 0.507,-0.7L0.169,-0.7L0.029,-0L0.396,-0C0.578,-0 0.711,-0.071 0.711,-0.221C0.711,-0.29 0.676,-0.337 0.617,-0.361ZM0.469,-0.578C0.534,-0.578 0.572,-0.558 0.572,-0.512C0.572,-0.447 0.521,-0.413 0.437,-0.413L0.272,-0.413L0.305,-0.578L0.469,-0.578ZM0.406,-0.122L0.215,-0.122L0.249,-0.295L0.445,-0.295C0.509,-0.295 0.55,-0.275 0.55,-0.223C0.55,-0.156 0.495,-0.122 0.406,-0.122Z" style="fill:white;fill-rule:nonzero;"/>
                </g>
                <g transform="matrix(197.496,0,0,197.496,1251.82,593.233)">
                    <path d="M0.427,-0.276C0.55,-0.371 0.588,-0.441 0.588,-0.524C0.588,-0.633 0.491,-0.712 0.343,-0.712C0.222,-0.712 0.117,-0.661 0.061,-0.584L0.17,-0.505C0.209,-0.552 0.263,-0.578 0.319,-0.578C0.387,-0.578 0.422,-0.547 0.422,-0.501C0.422,-0.455 0.398,-0.418 0.319,-0.355L0,-0.105L-0.021,-0L0.509,-0L0.535,-0.132L0.241,-0.132L0.427,-0.276Z" style="fill:white;fill-rule:nonzero;"/>
                </g>
                <g transform="matrix(197.496,0,0,197.496,1367.94,593.233)">
                    <path d="M0.299,0.012C0.516,0.012 0.664,-0.194 0.664,-0.447C0.664,-0.614 0.566,-0.712 0.411,-0.712C0.194,-0.712 0.046,-0.506 0.046,-0.253C0.046,-0.086 0.144,0.012 0.299,0.012ZM0.314,-0.125C0.249,-0.125 0.209,-0.166 0.209,-0.257C0.209,-0.387 0.273,-0.575 0.396,-0.575C0.461,-0.575 0.501,-0.534 0.501,-0.443C0.501,-0.313 0.437,-0.125 0.314,-0.125Z" style="fill:white;fill-rule:nonzero;"/>
                </g>
                <g transform="matrix(197.496,0,0,197.496,1500.66,593.233)">
                    <path d="M0.427,-0.276C0.55,-0.371 0.588,-0.441 0.588,-0.524C0.588,-0.633 0.491,-0.712 0.343,-0.712C0.222,-0.712 0.117,-0.661 0.061,-0.584L0.17,-0.505C0.209,-0.552 0.263,-0.578 0.319,-0.578C0.387,-0.578 0.422,-0.547 0.422,-0.501C0.422,-0.455 0.398,-0.418 0.319,-0.355L0,-0.105L-0.021,-0L0.509,-0L0.535,-0.132L0.241,-0.132L0.427,-0.276Z" style="fill:white;fill-rule:nonzero;"/>
                </g>
                <g transform="matrix(197.496,0,0,197.496,1617.18,593.233)">
                    <path d="M0.585,-0.57L0.612,-0.7L0.184,-0.7L0.07,-0.306L0.26,-0.306C0.358,-0.306 0.396,-0.276 0.396,-0.226C0.396,-0.161 0.342,-0.124 0.246,-0.124C0.172,-0.124 0.103,-0.148 0.057,-0.188L-0.021,-0.069C0.04,-0.017 0.132,0.012 0.236,0.012C0.426,0.012 0.56,-0.088 0.56,-0.245C0.56,-0.365 0.473,-0.437 0.298,-0.437L0.256,-0.437L0.294,-0.57L0.585,-0.57Z" style="fill:white;fill-rule:nonzero;"/>
                </g>
            </g>
            <g transform="matrix(0.529376,0,0,0.529376,339.785,1726.81)">
                <g transform="matrix(1.53912,-1.53912,1.53912,1.53912,-1163.66,1793.12)">
                    <path d="M1551.81,768.863C1550.37,768.863 1548.95,768.902 1547.53,768.96C1547.58,827.25 1594.85,874.487 1653.15,874.487C1654.1,874.487 1655.04,874.44 1655.98,874.415C1655.99,873.963 1656,873.513 1656,873.059C1656,815.605 1609.26,768.863 1551.81,768.863Z" style="fill:white;fill-rule:nonzero;"/>
                </g>
                <g transform="matrix(1.53912,-1.53912,1.53912,1.53912,-1163.66,1793.12)">
                    <path d="M1653.15,663.239C1639.52,663.239 1626.51,665.848 1614.55,670.548C1686.32,673.933 1744.91,728.522 1754.52,798.514C1757.27,789.104 1758.77,779.161 1758.77,768.863C1758.77,710.528 1711.48,663.239 1653.15,663.239Z" style="fill:white;fill-rule:nonzero;"/>
                </g>
                <g transform="matrix(1.53912,-1.53912,1.53912,1.53912,-1163.66,1793.12)">
                    <path d="M1584.64,708.914C1578.06,708.914 1571.59,709.383 1565.26,710.284C1561.92,715.285 1559.01,720.594 1556.55,726.149C1558.29,726.083 1560.04,726.042 1561.8,726.042C1637.78,726.042 1699.65,787.564 1700.24,863.407C1706.65,860.209 1712.68,856.378 1718.26,851.997C1718.62,848.119 1718.81,844.197 1718.81,840.23C1718.81,767.822 1658.62,708.914 1584.64,708.914Z" style="fill:white;fill-rule:nonzero;"/>
                </g>
                <g transform="matrix(1.53912,-1.53912,1.53912,1.53912,-1163.66,1793.12)">
                    <path d="M1561.8,737.461C1558.55,737.461 1555.34,737.61 1552.16,737.85C1550.22,744.178 1548.86,750.759 1548.14,757.531C1549.36,757.493 1550.58,757.444 1551.81,757.444C1615.56,757.444 1667.42,809.309 1667.42,873.059C1667.42,873.208 1667.41,873.353 1667.41,873.501C1674.79,872.504 1681.93,870.76 1688.75,868.321C1688.79,867.048 1688.83,865.777 1688.83,864.495C1688.83,794.448 1631.85,737.461 1561.8,737.461Z" style="fill:white;fill-rule:nonzero;"/>
                </g>
                <g transform="matrix(1.53912,-1.53912,1.53912,1.53912,-1163.66,1793.12)">
                    <path d="M1607.47,681.794C1602.28,681.794 1597.17,682.113 1592.12,682.678C1585.88,687.106 1580.12,692.171 1574.99,697.818C1578.18,697.612 1581.39,697.495 1584.64,697.495C1664.91,697.495 1730.23,761.526 1730.23,840.23C1730.23,840.507 1730.22,840.781 1730.21,841.057C1735.64,835.27 1740.41,828.875 1744.43,821.98C1744.46,820.927 1744.5,819.879 1744.5,818.82C1744.5,743.264 1683.03,681.794 1607.47,681.794Z" style="fill:white;fill-rule:nonzero;"/>
                </g>
            </g>
        </g>
    </g>
</svg>
