<?xml version="1.0" encoding="UTF-8" standalone="no"?>
<!DOCTYPE svg PUBLIC "-//W3C//DTD SVG 1.1//EN" "http://www.w3.org/Graphics/SVG/1.1/DTD/svg11.dtd">
<svg width="100%" height="100%" viewBox="0 0 357 358" version="1.1" xmlns="http://www.w3.org/2000/svg" xmlns:xlink="http://www.w3.org/1999/xlink" xml:space="preserve" xmlns:serif="http://www.serif.com/" style="fill-rule:evenodd;clip-rule:evenodd;stroke-linejoin:round;stroke-miterlimit:2;">
    <g transform="matrix(1,0,0,1,-2709.87,-1108.79)">
        <g transform="matrix(0.77662,0,0,0.77662,897.067,951.764)">
            <g transform="matrix(1.53912,-1.53912,1.53912,1.53912,-1163.66,1793.12)">
                <path d="M1551.81,768.863C1550.37,768.863 1548.95,768.902 1547.53,768.96C1547.58,827.25 1594.85,874.487 1653.15,874.487C1654.1,874.487 1655.04,874.44 1655.98,874.415C1655.99,873.963 1656,873.513 1656,873.059C1656,815.605 1609.26,768.863 1551.81,768.863Z" style="fill:rgb(39,39,39);fill-rule:nonzero;"/>
            </g>
            <g transform="matrix(1.53912,-1.53912,1.53912,1.53912,-1163.66,1793.12)">
                <path d="M1653.15,663.239C1639.52,663.239 1626.51,665.848 1614.55,670.548C1686.32,673.933 1744.91,728.522 1754.52,798.514C1757.27,789.104 1758.77,779.161 1758.77,768.863C1758.77,710.528 1711.48,663.239 1653.15,663.239Z" style="fill:rgb(39,39,39);fill-rule:nonzero;"/>
            </g>
            <g transform="matrix(1.53912,-1.53912,1.53912,1.53912,-1163.66,1793.12)">
                <path d="M1584.64,708.914C1578.06,708.914 1571.59,709.383 1565.26,710.284C1561.92,715.285 1559.01,720.594 1556.55,726.149C1558.29,726.083 1560.04,726.042 1561.8,726.042C1637.78,726.042 1699.65,787.564 1700.24,863.407C1706.65,860.209 1712.68,856.378 1718.26,851.997C1718.62,848.119 1718.81,844.197 1718.81,840.23C1718.81,767.822 1658.62,708.914 1584.64,708.914Z" style="fill:rgb(39,39,39);fill-rule:nonzero;"/>
            </g>
            <g transform="matrix(1.53912,-1.53912,1.53912,1.53912,-1163.66,1793.12)">
                <path d="M1561.8,737.461C1558.55,737.461 1555.34,737.61 1552.16,737.85C1550.22,744.178 1548.86,750.759 1548.14,757.531C1549.36,757.493 1550.58,757.444 1551.81,757.444C1615.56,757.444 1667.42,809.309 1667.42,873.059C1667.42,873.208 1667.41,873.353 1667.41,873.501C1674.79,872.504 1681.93,870.76 1688.75,868.321C1688.79,867.048 1688.83,865.777 1688.83,864.495C1688.83,794.448 1631.85,737.461 1561.8,737.461Z" style="fill:rgb(39,39,39);fill-rule:nonzero;"/>
            </g>
            <g transform="matrix(1.53912,-1.53912,1.53912,1.53912,-1163.66,1793.12)">
                <path d="M1607.47,681.794C1602.28,681.794 1597.17,682.113 1592.12,682.678C1585.88,687.106 1580.12,692.171 1574.99,697.818C1578.18,697.612 1581.39,697.495 1584.64,697.495C1664.91,697.495 1730.23,761.526 1730.23,840.23C1730.23,840.507 1730.22,840.781 1730.21,841.057C1735.64,835.27 1740.41,828.875 1744.43,821.98C1744.46,820.927 1744.5,819.879 1744.5,818.82C1744.5,743.264 1683.03,681.794 1607.47,681.794Z" style="fill:rgb(39,39,39);fill-rule:nonzero;"/>
            </g>
        </g>
    </g>
</svg>
