<?xml version="1.0" encoding="UTF-8" standalone="no"?>
<!DOCTYPE svg PUBLIC "-//W3C//DTD SVG 1.1//EN" "http://www.w3.org/Graphics/SVG/1.1/DTD/svg11.dtd">
<svg width="100%" height="100%" viewBox="0 0 2693 488" version="1.1" xmlns="http://www.w3.org/2000/svg" xmlns:xlink="http://www.w3.org/1999/xlink" xml:space="preserve" xmlns:serif="http://www.serif.com/" style="fill-rule:evenodd;clip-rule:evenodd;stroke-linejoin:round;stroke-miterlimit:2;">
    <g transform="matrix(1,0,0,1,-441.075,-1043.73)">
        <g transform="matrix(1.77629,0,0,2.22333,-471.65,-1713.54)">
            <rect x="513.836" y="1240.16" width="1515.97" height="219.135" style="fill:white;"/>
        </g>
        <g transform="matrix(4.16667,0,0,4.16667,-8533.33,-4895.56)">
            <rect x="2196.19" y="1442.72" width="2.13" height="63.064" style="fill:rgb(3,4,4);fill-rule:nonzero;"/>
        </g>
        <g transform="matrix(4.16667,0,0,4.16667,-8533.33,-4895.56)">
            <rect x="2200.14" y="1442.72" width="2.13" height="63.064" style="fill:rgb(3,4,4);fill-rule:nonzero;"/>
        </g>
        <g transform="matrix(4.16667,0,0,4.16667,-8533.33,-4895.56)">
            <rect x="2281.83" y="1442.72" width="2.13" height="63.064" style="fill:rgb(3,4,4);fill-rule:nonzero;"/>
        </g>
        <g transform="matrix(4.16667,0,0,4.16667,-8533.33,-4895.56)">
            <rect x="2285.78" y="1442.72" width="2.13" height="63.064" style="fill:rgb(3,4,4);fill-rule:nonzero;"/>
        </g>
        <g transform="matrix(4.16667,0,0,4.16667,-8533.33,-4895.56)">
            <rect x="2171.32" y="1442.72" width="2.86" height="63.064" style="fill:rgb(3,4,4);fill-rule:nonzero;"/>
        </g>
        <g transform="matrix(4.16667,0,0,4.16667,-8533.33,-4895.56)">
            <rect x="2176.97" y="1442.72" width="1.32" height="63.064" style="fill:rgb(3,4,4);fill-rule:nonzero;"/>
        </g>
        <g transform="matrix(4.16667,0,0,4.16667,-8533.33,-4895.56)">
            <rect x="2180.11" y="1442.72" width="1.33" height="63.064" style="fill:rgb(3,4,4);fill-rule:nonzero;"/>
        </g>
        <g transform="matrix(4.16667,0,0,4.16667,-8533.33,-4895.56)">
            <rect x="2183.26" y="1442.72" width="1.33" height="63.064" style="fill:rgb(3,4,4);fill-rule:nonzero;"/>
        </g>
        <g transform="matrix(4.16667,0,0,4.16667,-8533.33,-4895.56)">
            <rect x="2186.41" y="1442.72" width="2.86" height="63.064" style="fill:rgb(3,4,4);fill-rule:nonzero;"/>
        </g>
        <g transform="matrix(4.16667,0,0,4.16667,-8533.33,-4895.56)">
            <rect x="2193.04" y="1442.72" width="1.33" height="63.064" style="fill:rgb(3,4,4);fill-rule:nonzero;"/>
        </g>
        <g transform="matrix(4.16667,0,0,4.16667,-8533.33,-4895.56)">
            <rect x="2204.58" y="1442.72" width="2.87" height="63.064" style="fill:rgb(3,4,4);fill-rule:nonzero;"/>
        </g>
        <g transform="matrix(4.16667,0,0,4.16667,-8533.33,-4895.56)">
            <rect x="2210.23" y="1442.72" width="1.33" height="63.064" style="fill:rgb(3,4,4);fill-rule:nonzero;"/>
        </g>
        <g transform="matrix(4.16667,0,0,4.16667,-8533.33,-4895.56)">
            <rect x="2213.38" y="1442.72" width="1.32" height="63.064" style="fill:rgb(3,4,4);fill-rule:nonzero;"/>
        </g>
        <g transform="matrix(4.16667,0,0,4.16667,-8533.33,-4895.56)">
            <rect x="2230.03" y="1442.72" width="2.86" height="63.064" style="fill:rgb(3,4,4);fill-rule:nonzero;"/>
        </g>
        <g transform="matrix(4.16667,0,0,4.16667,-8533.33,-4895.56)">
            <rect x="2235.67" y="1442.72" width="1.33" height="63.064" style="fill:rgb(3,4,4);fill-rule:nonzero;"/>
        </g>
        <g transform="matrix(4.16667,0,0,4.16667,-8533.33,-4895.56)">
            <rect x="2238.82" y="1442.72" width="1.33" height="63.064" style="fill:rgb(3,4,4);fill-rule:nonzero;"/>
        </g>
        <g transform="matrix(4.16667,0,0,4.16667,-8533.33,-4895.56)">
            <rect x="2241.97" y="1442.72" width="1.33" height="63.064" style="fill:rgb(3,4,4);fill-rule:nonzero;"/>
        </g>
        <g transform="matrix(2.336,0,0,2.336,-4460.51,-2138.97)">
            <path d="M2223.86,1505.78L2216.95,1505.78L2217.85,1442.72L2222.74,1442.72L2223.86,1505.78Z" style="fill:rgb(3,4,4);fill-rule:nonzero;"/>
        </g>
        <g transform="matrix(1.1556,0,0,1.1113,-1839.68,-487.525)">
            <rect x="2217.85" y="1442.72" width="4.89" height="63.064" style="fill:rgb(3,4,4);fill-rule:nonzero;"/>
        </g>
        <g transform="matrix(4.16667,0,0,4.16667,-8533.33,-4895.56)">
            <rect x="2247.77" y="1442.72" width="4.89" height="63.064" style="fill:rgb(3,4,4);fill-rule:nonzero;"/>
        </g>
        <g transform="matrix(4.16667,0,0,4.16667,-8533.33,-4895.56)">
            <rect x="2260.12" y="1442.72" width="6.65" height="63.064" style="fill:rgb(3,4,4);fill-rule:nonzero;"/>
        </g>
        <g transform="matrix(4.16667,0,0,4.16667,-8533.33,-4895.56)">
            <rect x="2255.88" y="1442.72" width="1.32" height="63.064" style="fill:rgb(3,4,4);fill-rule:nonzero;"/>
        </g>
        <g transform="matrix(4.16667,0,0,4.16667,-8533.33,-4895.56)">
            <rect x="2271.85" y="1442.72" width="1.33" height="63.064" style="fill:rgb(3,4,4);fill-rule:nonzero;"/>
        </g>
        <g transform="matrix(4.16667,0,0,4.16667,-8533.33,-4895.56)">
            <rect x="2275" y="1442.72" width="1.32" height="63.064" style="fill:rgb(3,4,4);fill-rule:nonzero;"/>
        </g>
        <g transform="matrix(4.16667,0,0,4.16667,-8533.33,-4895.56)">
            <rect x="2278.15" y="1442.72" width="1.32" height="63.064" style="fill:rgb(3,4,4);fill-rule:nonzero;"/>
        </g>
        <g transform="matrix(4.16667,0,0,4.16667,-8533.33,-4888.22)">
            <path d="M2797.92,1538.38L2683.85,1538.38L2683.85,1425.89L2797.92,1425.89L2797.92,1538.38ZM2306.48,1538.38L2306.48,1425.89L2681.64,1425.89L2681.64,1538.38L2306.48,1538.38ZM2304.27,1538.38L2156.07,1538.38L2156.07,1425.89L2304.27,1425.89L2304.27,1538.38ZM2800.13,1423.67L2153.86,1423.67L2153.86,1540.6L2800.13,1540.6L2800.13,1423.67Z" style="fill:rgb(3,4,4);fill-rule:nonzero;"/>
        </g>
        <g transform="matrix(4.16667,0,0,4.16667,-8533.33,-4888.22)">
            <path d="M2665.34,1499.46L2322.22,1499.46L2322.22,1522.16L2665.34,1522.16L2665.34,1499.46ZM2664.03,1500.77L2664.03,1520.85L2323.53,1520.85L2323.53,1500.77L2664.03,1500.77Z" style="fill:rgb(3,4,4);fill-rule:nonzero;"/>
        </g>
        <g transform="matrix(1.02938,0,0,1.02938,417.724,674.239)">
            <g transform="matrix(197.496,0,0,197.496,813.179,593.233)">
                <path d="M0.029,-0L0.192,-0L0.332,-0.7L0.169,-0.7L0.029,-0Z" style="fill:rgb(35,31,32);fill-rule:nonzero;"/>
            </g>
            <g transform="matrix(197.496,0,0,197.496,877.958,593.233)">
                <path d="M0.397,0.012C0.517,0.012 0.619,-0.023 0.693,-0.109L0.597,-0.207C0.545,-0.151 0.482,-0.126 0.411,-0.126C0.285,-0.126 0.215,-0.196 0.215,-0.302C0.215,-0.453 0.317,-0.574 0.475,-0.574C0.552,-0.574 0.608,-0.545 0.644,-0.492L0.761,-0.588C0.711,-0.668 0.61,-0.712 0.486,-0.712C0.226,-0.712 0.051,-0.531 0.051,-0.292C0.051,-0.112 0.183,0.012 0.397,0.012Z" style="fill:rgb(35,31,32);fill-rule:nonzero;"/>
            </g>
            <g transform="matrix(197.496,0,0,197.496,1021.54,593.233)">
                <path d="M0.273,0.012C0.468,0.012 0.596,-0.081 0.596,-0.226C0.596,-0.441 0.248,-0.381 0.249,-0.496C0.249,-0.546 0.304,-0.582 0.398,-0.582C0.467,-0.582 0.535,-0.564 0.588,-0.528L0.649,-0.652C0.588,-0.691 0.501,-0.712 0.407,-0.712C0.213,-0.712 0.087,-0.619 0.087,-0.475C0.087,-0.252 0.434,-0.312 0.434,-0.2C0.434,-0.149 0.378,-0.118 0.289,-0.118C0.206,-0.118 0.122,-0.144 0.058,-0.191L-0.008,-0.066C0.051,-0.022 0.159,0.012 0.273,0.012Z" style="fill:rgb(35,31,32);fill-rule:nonzero;"/>
            </g>
            <g transform="matrix(197.496,0,0,197.496,1147.54,593.233)">
                <path d="M0.392,0.012C0.65,0.012 0.825,-0.169 0.825,-0.408C0.825,-0.588 0.697,-0.712 0.484,-0.712C0.226,-0.712 0.051,-0.531 0.051,-0.292C0.051,-0.112 0.179,0.012 0.392,0.012ZM0.406,-0.126C0.283,-0.126 0.215,-0.197 0.215,-0.301C0.215,-0.449 0.312,-0.574 0.47,-0.574C0.593,-0.574 0.661,-0.503 0.661,-0.399C0.661,-0.251 0.564,-0.126 0.406,-0.126Z" style="fill:rgb(35,31,32);fill-rule:nonzero;"/>
            </g>
            <g transform="matrix(197.496,0,0,197.496,1314.23,593.233)">
                <path d="M0.617,-0.361C0.691,-0.392 0.742,-0.452 0.742,-0.54C0.742,-0.643 0.658,-0.7 0.507,-0.7L0.169,-0.7L0.029,-0L0.396,-0C0.578,-0 0.711,-0.071 0.711,-0.221C0.711,-0.29 0.676,-0.337 0.617,-0.361ZM0.469,-0.578C0.534,-0.578 0.572,-0.558 0.572,-0.512C0.572,-0.447 0.521,-0.413 0.437,-0.413L0.272,-0.413L0.305,-0.578L0.469,-0.578ZM0.406,-0.122L0.215,-0.122L0.249,-0.295L0.445,-0.295C0.509,-0.295 0.55,-0.275 0.55,-0.223C0.55,-0.156 0.495,-0.122 0.406,-0.122Z" style="fill:rgb(35,31,32);fill-rule:nonzero;"/>
            </g>
            <g transform="matrix(197.496,0,0,197.496,1521.2,593.233)">
                <path d="M0.427,-0.276C0.55,-0.371 0.588,-0.441 0.588,-0.524C0.588,-0.633 0.491,-0.712 0.343,-0.712C0.222,-0.712 0.117,-0.661 0.061,-0.584L0.17,-0.505C0.209,-0.552 0.263,-0.578 0.319,-0.578C0.387,-0.578 0.422,-0.547 0.422,-0.501C0.422,-0.455 0.398,-0.418 0.319,-0.355L0,-0.105L-0.021,-0L0.509,-0L0.535,-0.132L0.241,-0.132L0.427,-0.276Z" style="fill:rgb(35,31,32);fill-rule:nonzero;"/>
            </g>
            <g transform="matrix(197.496,0,0,197.496,1637.33,593.233)">
                <path d="M0.299,0.012C0.516,0.012 0.664,-0.194 0.664,-0.447C0.664,-0.614 0.566,-0.712 0.411,-0.712C0.194,-0.712 0.046,-0.506 0.046,-0.253C0.046,-0.086 0.144,0.012 0.299,0.012ZM0.314,-0.125C0.249,-0.125 0.209,-0.166 0.209,-0.257C0.209,-0.387 0.273,-0.575 0.396,-0.575C0.461,-0.575 0.501,-0.534 0.501,-0.443C0.501,-0.313 0.437,-0.125 0.314,-0.125Z" style="fill:rgb(35,31,32);fill-rule:nonzero;"/>
            </g>
            <g transform="matrix(197.496,0,0,197.496,1770.05,593.233)">
                <path d="M0.427,-0.276C0.55,-0.371 0.588,-0.441 0.588,-0.524C0.588,-0.633 0.491,-0.712 0.343,-0.712C0.222,-0.712 0.117,-0.661 0.061,-0.584L0.17,-0.505C0.209,-0.552 0.263,-0.578 0.319,-0.578C0.387,-0.578 0.422,-0.547 0.422,-0.501C0.422,-0.455 0.398,-0.418 0.319,-0.355L0,-0.105L-0.021,-0L0.509,-0L0.535,-0.132L0.241,-0.132L0.427,-0.276Z" style="fill:rgb(35,31,32);fill-rule:nonzero;"/>
            </g>
            <g transform="matrix(197.496,0,0,197.496,1886.57,593.233)">
                <path d="M0.585,-0.57L0.612,-0.7L0.184,-0.7L0.07,-0.306L0.26,-0.306C0.358,-0.306 0.396,-0.276 0.396,-0.226C0.396,-0.161 0.342,-0.124 0.246,-0.124C0.172,-0.124 0.103,-0.148 0.057,-0.188L-0.021,-0.069C0.04,-0.017 0.132,0.012 0.236,0.012C0.426,0.012 0.56,-0.088 0.56,-0.245C0.56,-0.365 0.473,-0.437 0.298,-0.437L0.256,-0.437L0.294,-0.57L0.585,-0.57Z" style="fill:rgb(35,31,32);fill-rule:nonzero;"/>
            </g>
        </g>
        <g transform="matrix(0.265426,0,0,0.265426,988.474,1269.67)">
            <g transform="matrix(197.496,0,0,197.496,813.179,593.233)">
                <path d="M0.029,-0L0.192,-0L0.332,-0.7L0.169,-0.7L0.029,-0Z" style="fill:rgb(35,31,32);fill-rule:nonzero;"/>
            </g>
            <g transform="matrix(197.496,0,0,197.496,877.958,593.233)">
                <path d="M0.439,-0.546C0.373,-0.546 0.311,-0.525 0.262,-0.48L0.274,-0.538L0.126,-0.538L0.019,-0L0.175,-0L0.229,-0.273C0.248,-0.367 0.303,-0.411 0.382,-0.411C0.444,-0.411 0.474,-0.38 0.474,-0.325C0.474,-0.314 0.473,-0.301 0.47,-0.288L0.412,-0L0.568,-0L0.628,-0.298C0.633,-0.321 0.635,-0.343 0.635,-0.363C0.635,-0.482 0.557,-0.546 0.439,-0.546Z" style="fill:rgb(35,31,32);fill-rule:nonzero;"/>
            </g>
            <g transform="matrix(197.496,0,0,197.496,1014.43,593.233)">
                <path d="M0.274,-0.406L0.408,-0.406L0.432,-0.526L0.298,-0.526L0.324,-0.657L0.168,-0.657L0.142,-0.526L0.059,-0.526L0.035,-0.406L0.118,-0.406L0.075,-0.189C0.072,-0.173 0.07,-0.157 0.07,-0.142C0.07,-0.048 0.138,0.008 0.238,0.008C0.285,0.008 0.333,-0 0.372,-0.024L0.349,-0.135C0.329,-0.123 0.307,-0.116 0.286,-0.116C0.247,-0.116 0.229,-0.135 0.229,-0.168C0.229,-0.175 0.229,-0.182 0.231,-0.19L0.274,-0.406Z" style="fill:rgb(35,31,32);fill-rule:nonzero;"/>
            </g>
            <g transform="matrix(197.496,0,0,197.496,1096.98,593.233)">
                <path d="M0.603,-0.309C0.603,-0.453 0.504,-0.546 0.347,-0.546C0.16,-0.546 0.03,-0.413 0.03,-0.233C0.03,-0.087 0.137,0.008 0.305,0.008C0.387,0.008 0.468,-0.014 0.53,-0.064L0.465,-0.167C0.428,-0.135 0.376,-0.117 0.321,-0.117C0.232,-0.117 0.187,-0.154 0.182,-0.227L0.594,-0.227C0.599,-0.252 0.603,-0.28 0.603,-0.309ZM0.34,-0.429C0.412,-0.429 0.46,-0.389 0.46,-0.318L0.193,-0.318C0.214,-0.385 0.265,-0.429 0.34,-0.429Z" style="fill:rgb(35,31,32);fill-rule:nonzero;"/>
            </g>
            <g transform="matrix(197.496,0,0,197.496,1221.01,593.233)">
                <path d="M0.261,-0.474L0.274,-0.538L0.126,-0.538L0.019,-0L0.175,-0L0.227,-0.26C0.247,-0.361 0.306,-0.404 0.398,-0.404C0.411,-0.404 0.42,-0.403 0.434,-0.402L0.462,-0.546C0.375,-0.546 0.309,-0.526 0.261,-0.474Z" style="fill:rgb(35,31,32);fill-rule:nonzero;"/>
            </g>
            <g transform="matrix(197.496,0,0,197.496,1305.34,593.233)">
                <path d="M0.439,-0.546C0.373,-0.546 0.311,-0.525 0.262,-0.48L0.274,-0.538L0.126,-0.538L0.019,-0L0.175,-0L0.229,-0.273C0.248,-0.367 0.303,-0.411 0.382,-0.411C0.444,-0.411 0.474,-0.38 0.474,-0.325C0.474,-0.314 0.473,-0.301 0.47,-0.288L0.412,-0L0.568,-0L0.628,-0.298C0.633,-0.321 0.635,-0.343 0.635,-0.363C0.635,-0.482 0.557,-0.546 0.439,-0.546Z" style="fill:rgb(35,31,32);fill-rule:nonzero;"/>
            </g>
            <g transform="matrix(197.496,0,0,197.496,1442.99,593.233)">
                <path d="M0.516,-0.538L0.502,-0.465C0.467,-0.521 0.405,-0.546 0.327,-0.546C0.161,-0.546 0.03,-0.414 0.03,-0.233C0.03,-0.08 0.137,0.008 0.262,0.008C0.328,0.008 0.384,-0.014 0.427,-0.053L0.417,-0L0.565,-0L0.672,-0.538L0.516,-0.538ZM0.31,-0.121C0.232,-0.121 0.187,-0.167 0.187,-0.24C0.187,-0.345 0.253,-0.417 0.345,-0.417C0.423,-0.417 0.468,-0.371 0.468,-0.298C0.468,-0.193 0.402,-0.121 0.31,-0.121Z" style="fill:rgb(35,31,32);fill-rule:nonzero;"/>
            </g>
            <g transform="matrix(197.496,0,0,197.496,1579.26,593.233)">
                <path d="M0.274,-0.406L0.408,-0.406L0.432,-0.526L0.298,-0.526L0.324,-0.657L0.168,-0.657L0.142,-0.526L0.059,-0.526L0.035,-0.406L0.118,-0.406L0.075,-0.189C0.072,-0.173 0.07,-0.157 0.07,-0.142C0.07,-0.048 0.138,0.008 0.238,0.008C0.285,0.008 0.333,-0 0.372,-0.024L0.349,-0.135C0.329,-0.123 0.307,-0.116 0.286,-0.116C0.247,-0.116 0.229,-0.135 0.229,-0.168C0.229,-0.175 0.229,-0.182 0.231,-0.19L0.274,-0.406Z" style="fill:rgb(35,31,32);fill-rule:nonzero;"/>
            </g>
            <g transform="matrix(197.496,0,0,197.496,1665.18,593.233)">
                <path d="M0.23,-0.613C0.292,-0.613 0.334,-0.652 0.334,-0.709C0.334,-0.753 0.297,-0.787 0.242,-0.787C0.18,-0.787 0.139,-0.746 0.139,-0.694C0.139,-0.649 0.175,-0.613 0.23,-0.613ZM0.019,-0L0.174,-0L0.281,-0.538L0.126,-0.538L0.019,-0Z" style="fill:rgb(35,31,32);fill-rule:nonzero;"/>
            </g>
            <g transform="matrix(197.496,0,0,197.496,1724.42,593.233)">
                <path d="M0.3,0.008C0.49,0.008 0.625,-0.126 0.625,-0.305C0.625,-0.451 0.519,-0.546 0.354,-0.546C0.165,-0.546 0.029,-0.412 0.029,-0.233C0.029,-0.088 0.136,0.008 0.3,0.008ZM0.31,-0.121C0.232,-0.121 0.187,-0.167 0.187,-0.24C0.187,-0.345 0.253,-0.417 0.345,-0.417C0.423,-0.417 0.467,-0.371 0.467,-0.298C0.467,-0.193 0.401,-0.121 0.31,-0.121Z" style="fill:rgb(35,31,32);fill-rule:nonzero;"/>
            </g>
            <g transform="matrix(197.496,0,0,197.496,1853.59,593.233)">
                <path d="M0.439,-0.546C0.373,-0.546 0.311,-0.525 0.262,-0.48L0.274,-0.538L0.126,-0.538L0.019,-0L0.175,-0L0.229,-0.273C0.248,-0.367 0.303,-0.411 0.382,-0.411C0.444,-0.411 0.474,-0.38 0.474,-0.325C0.474,-0.314 0.473,-0.301 0.47,-0.288L0.412,-0L0.568,-0L0.628,-0.298C0.633,-0.321 0.635,-0.343 0.635,-0.363C0.635,-0.482 0.557,-0.546 0.439,-0.546Z" style="fill:rgb(35,31,32);fill-rule:nonzero;"/>
            </g>
            <g transform="matrix(197.496,0,0,197.496,1991.24,593.233)">
                <path d="M0.516,-0.538L0.502,-0.465C0.467,-0.521 0.405,-0.546 0.327,-0.546C0.161,-0.546 0.03,-0.414 0.03,-0.233C0.03,-0.08 0.137,0.008 0.262,0.008C0.328,0.008 0.384,-0.014 0.427,-0.053L0.417,-0L0.565,-0L0.672,-0.538L0.516,-0.538ZM0.31,-0.121C0.232,-0.121 0.187,-0.167 0.187,-0.24C0.187,-0.345 0.253,-0.417 0.345,-0.417C0.423,-0.417 0.468,-0.371 0.468,-0.298C0.468,-0.193 0.402,-0.121 0.31,-0.121Z" style="fill:rgb(35,31,32);fill-rule:nonzero;"/>
            </g>
            <g transform="matrix(197.496,0,0,197.496,2127.51,593.233)">
                <path d="M0.019,-0L0.175,-0L0.323,-0.742L0.167,-0.742L0.019,-0Z" style="fill:rgb(35,31,32);fill-rule:nonzero;"/>
            </g>
            <g transform="matrix(197.496,0,0,197.496,2242.85,593.233)">
                <path d="M0.397,0.012C0.517,0.012 0.619,-0.023 0.693,-0.109L0.597,-0.207C0.545,-0.151 0.482,-0.126 0.411,-0.126C0.285,-0.126 0.215,-0.196 0.215,-0.302C0.215,-0.453 0.317,-0.574 0.475,-0.574C0.552,-0.574 0.608,-0.545 0.644,-0.492L0.761,-0.588C0.711,-0.668 0.61,-0.712 0.486,-0.712C0.226,-0.712 0.051,-0.531 0.051,-0.292C0.051,-0.112 0.183,0.012 0.397,0.012Z" style="fill:rgb(35,31,32);fill-rule:nonzero;"/>
            </g>
            <g transform="matrix(197.496,0,0,197.496,2383.86,593.233)">
                <path d="M0.3,0.008C0.49,0.008 0.625,-0.126 0.625,-0.305C0.625,-0.451 0.519,-0.546 0.354,-0.546C0.165,-0.546 0.029,-0.412 0.029,-0.233C0.029,-0.088 0.136,0.008 0.3,0.008ZM0.31,-0.121C0.232,-0.121 0.187,-0.167 0.187,-0.24C0.187,-0.345 0.253,-0.417 0.345,-0.417C0.423,-0.417 0.467,-0.371 0.467,-0.298C0.467,-0.193 0.401,-0.121 0.31,-0.121Z" style="fill:rgb(35,31,32);fill-rule:nonzero;"/>
            </g>
            <g transform="matrix(197.496,0,0,197.496,2513.02,593.233)">
                <path d="M0.439,-0.546C0.373,-0.546 0.311,-0.525 0.262,-0.48L0.274,-0.538L0.126,-0.538L0.019,-0L0.175,-0L0.229,-0.273C0.248,-0.367 0.303,-0.411 0.382,-0.411C0.444,-0.411 0.474,-0.38 0.474,-0.325C0.474,-0.314 0.473,-0.301 0.47,-0.288L0.412,-0L0.568,-0L0.628,-0.298C0.633,-0.321 0.635,-0.343 0.635,-0.363C0.635,-0.482 0.557,-0.546 0.439,-0.546Z" style="fill:rgb(35,31,32);fill-rule:nonzero;"/>
            </g>
            <g transform="matrix(197.496,0,0,197.496,2649.49,593.233)">
                <path d="M0.384,-0.627C0.408,-0.627 0.429,-0.621 0.446,-0.608L0.507,-0.72C0.476,-0.739 0.431,-0.75 0.383,-0.75C0.251,-0.75 0.173,-0.674 0.149,-0.557L0.143,-0.526L0.059,-0.526L0.035,-0.406L0.119,-0.406L0.038,-0L0.194,-0L0.275,-0.406L0.408,-0.406L0.432,-0.526L0.295,-0.526L0.299,-0.546C0.31,-0.602 0.336,-0.627 0.384,-0.627Z" style="fill:rgb(35,31,32);fill-rule:nonzero;"/>
            </g>
            <g transform="matrix(197.496,0,0,197.496,2724.54,593.233)">
                <path d="M0.603,-0.309C0.603,-0.453 0.504,-0.546 0.347,-0.546C0.16,-0.546 0.03,-0.413 0.03,-0.233C0.03,-0.087 0.137,0.008 0.305,0.008C0.387,0.008 0.468,-0.014 0.53,-0.064L0.465,-0.167C0.428,-0.135 0.376,-0.117 0.321,-0.117C0.232,-0.117 0.187,-0.154 0.182,-0.227L0.594,-0.227C0.599,-0.252 0.603,-0.28 0.603,-0.309ZM0.34,-0.429C0.412,-0.429 0.46,-0.389 0.46,-0.318L0.193,-0.318C0.214,-0.385 0.265,-0.429 0.34,-0.429Z" style="fill:rgb(35,31,32);fill-rule:nonzero;"/>
            </g>
            <g transform="matrix(197.496,0,0,197.496,2848.57,593.233)">
                <path d="M0.261,-0.474L0.274,-0.538L0.126,-0.538L0.019,-0L0.175,-0L0.227,-0.26C0.247,-0.361 0.306,-0.404 0.398,-0.404C0.411,-0.404 0.42,-0.403 0.434,-0.402L0.462,-0.546C0.375,-0.546 0.309,-0.526 0.261,-0.474Z" style="fill:rgb(35,31,32);fill-rule:nonzero;"/>
            </g>
            <g transform="matrix(197.496,0,0,197.496,2931.91,593.233)">
                <path d="M0.603,-0.309C0.603,-0.453 0.504,-0.546 0.347,-0.546C0.16,-0.546 0.03,-0.413 0.03,-0.233C0.03,-0.087 0.137,0.008 0.305,0.008C0.387,0.008 0.468,-0.014 0.53,-0.064L0.465,-0.167C0.428,-0.135 0.376,-0.117 0.321,-0.117C0.232,-0.117 0.187,-0.154 0.182,-0.227L0.594,-0.227C0.599,-0.252 0.603,-0.28 0.603,-0.309ZM0.34,-0.429C0.412,-0.429 0.46,-0.389 0.46,-0.318L0.193,-0.318C0.214,-0.385 0.265,-0.429 0.34,-0.429Z" style="fill:rgb(35,31,32);fill-rule:nonzero;"/>
            </g>
            <g transform="matrix(197.496,0,0,197.496,3055.94,593.233)">
                <path d="M0.439,-0.546C0.373,-0.546 0.311,-0.525 0.262,-0.48L0.274,-0.538L0.126,-0.538L0.019,-0L0.175,-0L0.229,-0.273C0.248,-0.367 0.303,-0.411 0.382,-0.411C0.444,-0.411 0.474,-0.38 0.474,-0.325C0.474,-0.314 0.473,-0.301 0.47,-0.288L0.412,-0L0.568,-0L0.628,-0.298C0.633,-0.321 0.635,-0.343 0.635,-0.363C0.635,-0.482 0.557,-0.546 0.439,-0.546Z" style="fill:rgb(35,31,32);fill-rule:nonzero;"/>
            </g>
            <g transform="matrix(197.496,0,0,197.496,3193.59,593.233)">
                <path d="M0.303,0.008C0.413,0.008 0.507,-0.04 0.559,-0.121L0.444,-0.193C0.412,-0.143 0.366,-0.121 0.312,-0.121C0.232,-0.121 0.187,-0.168 0.187,-0.241C0.187,-0.345 0.255,-0.417 0.347,-0.417C0.402,-0.417 0.443,-0.394 0.467,-0.344L0.599,-0.41C0.558,-0.497 0.472,-0.546 0.357,-0.546C0.165,-0.546 0.029,-0.412 0.029,-0.233C0.029,-0.088 0.136,0.008 0.303,0.008Z" style="fill:rgb(35,31,32);fill-rule:nonzero;"/>
            </g>
            <g transform="matrix(197.496,0,0,197.496,3308.93,593.233)">
                <path d="M0.603,-0.309C0.603,-0.453 0.504,-0.546 0.347,-0.546C0.16,-0.546 0.03,-0.413 0.03,-0.233C0.03,-0.087 0.137,0.008 0.305,0.008C0.387,0.008 0.468,-0.014 0.53,-0.064L0.465,-0.167C0.428,-0.135 0.376,-0.117 0.321,-0.117C0.232,-0.117 0.187,-0.154 0.182,-0.227L0.594,-0.227C0.599,-0.252 0.603,-0.28 0.603,-0.309ZM0.34,-0.429C0.412,-0.429 0.46,-0.389 0.46,-0.318L0.193,-0.318C0.214,-0.385 0.265,-0.429 0.34,-0.429Z" style="fill:rgb(35,31,32);fill-rule:nonzero;"/>
            </g>
            <g transform="matrix(197.496,0,0,197.496,3488.85,593.233)">
                <path d="M0.3,0.008C0.49,0.008 0.625,-0.126 0.625,-0.305C0.625,-0.451 0.519,-0.546 0.354,-0.546C0.165,-0.546 0.029,-0.412 0.029,-0.233C0.029,-0.088 0.136,0.008 0.3,0.008ZM0.31,-0.121C0.232,-0.121 0.187,-0.167 0.187,-0.24C0.187,-0.345 0.253,-0.417 0.345,-0.417C0.423,-0.417 0.467,-0.371 0.467,-0.298C0.467,-0.193 0.401,-0.121 0.31,-0.121Z" style="fill:rgb(35,31,32);fill-rule:nonzero;"/>
            </g>
            <g transform="matrix(197.496,0,0,197.496,3618.01,593.233)">
                <path d="M0.439,-0.546C0.373,-0.546 0.311,-0.525 0.262,-0.48L0.274,-0.538L0.126,-0.538L0.019,-0L0.175,-0L0.229,-0.273C0.248,-0.367 0.303,-0.411 0.382,-0.411C0.444,-0.411 0.474,-0.38 0.474,-0.325C0.474,-0.314 0.473,-0.301 0.47,-0.288L0.412,-0L0.568,-0L0.628,-0.298C0.633,-0.321 0.635,-0.343 0.635,-0.363C0.635,-0.482 0.557,-0.546 0.439,-0.546Z" style="fill:rgb(35,31,32);fill-rule:nonzero;"/>
            </g>
            <g transform="matrix(197.496,0,0,197.496,3810.37,593.233)">
                <path d="M0.273,0.012C0.468,0.012 0.596,-0.081 0.596,-0.226C0.596,-0.441 0.248,-0.381 0.249,-0.496C0.249,-0.546 0.304,-0.582 0.398,-0.582C0.467,-0.582 0.535,-0.564 0.588,-0.528L0.649,-0.652C0.588,-0.691 0.501,-0.712 0.407,-0.712C0.213,-0.712 0.087,-0.619 0.087,-0.475C0.087,-0.252 0.434,-0.312 0.434,-0.2C0.434,-0.149 0.378,-0.118 0.289,-0.118C0.206,-0.118 0.122,-0.144 0.058,-0.191L-0.008,-0.066C0.051,-0.022 0.159,0.012 0.273,0.012Z" style="fill:rgb(35,31,32);fill-rule:nonzero;"/>
            </g>
            <g transform="matrix(197.496,0,0,197.496,3936.38,593.233)">
                <path d="M0.3,0.008C0.49,0.008 0.625,-0.126 0.625,-0.305C0.625,-0.451 0.519,-0.546 0.354,-0.546C0.165,-0.546 0.029,-0.412 0.029,-0.233C0.029,-0.088 0.136,0.008 0.3,0.008ZM0.31,-0.121C0.232,-0.121 0.187,-0.167 0.187,-0.24C0.187,-0.345 0.253,-0.417 0.345,-0.417C0.423,-0.417 0.467,-0.371 0.467,-0.298C0.467,-0.193 0.401,-0.121 0.31,-0.121Z" style="fill:rgb(35,31,32);fill-rule:nonzero;"/>
            </g>
            <g transform="matrix(197.496,0,0,197.496,4065.54,593.233)">
                <path d="M0.384,-0.627C0.408,-0.627 0.429,-0.621 0.446,-0.608L0.507,-0.72C0.476,-0.739 0.431,-0.75 0.383,-0.75C0.251,-0.75 0.173,-0.674 0.149,-0.557L0.143,-0.526L0.059,-0.526L0.035,-0.406L0.119,-0.406L0.038,-0L0.194,-0L0.275,-0.406L0.408,-0.406L0.432,-0.526L0.295,-0.526L0.299,-0.546C0.31,-0.602 0.336,-0.627 0.384,-0.627Z" style="fill:rgb(35,31,32);fill-rule:nonzero;"/>
            </g>
            <g transform="matrix(197.496,0,0,197.496,4141.97,593.233)">
                <path d="M0.274,-0.406L0.408,-0.406L0.432,-0.526L0.298,-0.526L0.324,-0.657L0.168,-0.657L0.142,-0.526L0.059,-0.526L0.035,-0.406L0.118,-0.406L0.075,-0.189C0.072,-0.173 0.07,-0.157 0.07,-0.142C0.07,-0.048 0.138,0.008 0.238,0.008C0.285,0.008 0.333,-0 0.372,-0.024L0.349,-0.135C0.329,-0.123 0.307,-0.116 0.286,-0.116C0.247,-0.116 0.229,-0.135 0.229,-0.168C0.229,-0.175 0.229,-0.182 0.231,-0.19L0.274,-0.406Z" style="fill:rgb(35,31,32);fill-rule:nonzero;"/>
            </g>
            <g transform="matrix(197.496,0,0,197.496,4225.9,593.233)">
                <path d="M0.85,-0.538L0.65,-0.176L0.589,-0.538L0.455,-0.538L0.253,-0.176L0.194,-0.538L0.052,-0.538L0.147,-0L0.299,-0L0.484,-0.335L0.546,-0L0.7,-0L0.997,-0.538L0.85,-0.538Z" style="fill:rgb(35,31,32);fill-rule:nonzero;"/>
            </g>
            <g transform="matrix(197.496,0,0,197.496,4408.78,593.233)">
                <path d="M0.516,-0.538L0.502,-0.465C0.467,-0.521 0.405,-0.546 0.327,-0.546C0.161,-0.546 0.03,-0.414 0.03,-0.233C0.03,-0.08 0.137,0.008 0.262,0.008C0.328,0.008 0.384,-0.014 0.427,-0.053L0.417,-0L0.565,-0L0.672,-0.538L0.516,-0.538ZM0.31,-0.121C0.232,-0.121 0.187,-0.167 0.187,-0.24C0.187,-0.345 0.253,-0.417 0.345,-0.417C0.423,-0.417 0.468,-0.371 0.468,-0.298C0.468,-0.193 0.402,-0.121 0.31,-0.121Z" style="fill:rgb(35,31,32);fill-rule:nonzero;"/>
            </g>
            <g transform="matrix(197.496,0,0,197.496,4545.06,593.233)">
                <path d="M0.261,-0.474L0.274,-0.538L0.126,-0.538L0.019,-0L0.175,-0L0.227,-0.26C0.247,-0.361 0.306,-0.404 0.398,-0.404C0.411,-0.404 0.42,-0.403 0.434,-0.402L0.462,-0.546C0.375,-0.546 0.309,-0.526 0.261,-0.474Z" style="fill:rgb(35,31,32);fill-rule:nonzero;"/>
            </g>
            <g transform="matrix(197.496,0,0,197.496,4628.4,593.233)">
                <path d="M0.603,-0.309C0.603,-0.453 0.504,-0.546 0.347,-0.546C0.16,-0.546 0.03,-0.413 0.03,-0.233C0.03,-0.087 0.137,0.008 0.305,0.008C0.387,0.008 0.468,-0.014 0.53,-0.064L0.465,-0.167C0.428,-0.135 0.376,-0.117 0.321,-0.117C0.232,-0.117 0.187,-0.154 0.182,-0.227L0.594,-0.227C0.599,-0.252 0.603,-0.28 0.603,-0.309ZM0.34,-0.429C0.412,-0.429 0.46,-0.389 0.46,-0.318L0.193,-0.318C0.214,-0.385 0.265,-0.429 0.34,-0.429Z" style="fill:rgb(35,31,32);fill-rule:nonzero;"/>
            </g>
            <g transform="matrix(197.496,0,0,197.496,4808.32,593.233)">
                <path d="M0.617,-0.361C0.691,-0.392 0.742,-0.452 0.742,-0.54C0.742,-0.643 0.658,-0.7 0.507,-0.7L0.169,-0.7L0.029,-0L0.396,-0C0.578,-0 0.711,-0.071 0.711,-0.221C0.711,-0.29 0.676,-0.337 0.617,-0.361ZM0.469,-0.578C0.534,-0.578 0.572,-0.558 0.572,-0.512C0.572,-0.447 0.521,-0.413 0.437,-0.413L0.272,-0.413L0.305,-0.578L0.469,-0.578ZM0.406,-0.122L0.215,-0.122L0.249,-0.295L0.445,-0.295C0.509,-0.295 0.55,-0.275 0.55,-0.223C0.55,-0.156 0.495,-0.122 0.406,-0.122Z" style="fill:rgb(35,31,32);fill-rule:nonzero;"/>
            </g>
            <g transform="matrix(197.496,0,0,197.496,4959.4,593.233)">
                <path d="M0.512,-0.538L0.457,-0.265C0.438,-0.171 0.384,-0.127 0.307,-0.127C0.246,-0.127 0.217,-0.157 0.217,-0.211C0.217,-0.223 0.218,-0.236 0.221,-0.25L0.278,-0.538L0.122,-0.538L0.063,-0.24C0.058,-0.217 0.056,-0.195 0.056,-0.175C0.056,-0.056 0.134,0.008 0.249,0.008C0.314,0.008 0.376,-0.013 0.424,-0.058L0.413,-0L0.561,-0L0.668,-0.538L0.512,-0.538Z" style="fill:rgb(35,31,32);fill-rule:nonzero;"/>
            </g>
            <g transform="matrix(197.496,0,0,197.496,5095.08,593.233)">
                <path d="M0.215,0.008C0.37,0.008 0.486,-0.057 0.486,-0.18C0.486,-0.359 0.202,-0.296 0.202,-0.375C0.202,-0.404 0.234,-0.428 0.306,-0.428C0.356,-0.428 0.415,-0.418 0.465,-0.387L0.521,-0.501C0.472,-0.529 0.397,-0.546 0.322,-0.546C0.165,-0.546 0.052,-0.478 0.052,-0.357C0.052,-0.175 0.337,-0.238 0.337,-0.162C0.337,-0.13 0.305,-0.11 0.232,-0.11C0.164,-0.11 0.091,-0.13 0.045,-0.161L-0.015,-0.048C0.03,-0.016 0.12,0.008 0.215,0.008Z" style="fill:rgb(35,31,32);fill-rule:nonzero;"/>
            </g>
            <g transform="matrix(197.496,0,0,197.496,5199.95,593.233)">
                <path d="M0.23,-0.613C0.292,-0.613 0.334,-0.652 0.334,-0.709C0.334,-0.753 0.297,-0.787 0.242,-0.787C0.18,-0.787 0.139,-0.746 0.139,-0.694C0.139,-0.649 0.175,-0.613 0.23,-0.613ZM0.019,-0L0.174,-0L0.281,-0.538L0.126,-0.538L0.019,-0Z" style="fill:rgb(35,31,32);fill-rule:nonzero;"/>
            </g>
            <g transform="matrix(197.496,0,0,197.496,5259.2,593.233)">
                <path d="M0.439,-0.546C0.373,-0.546 0.311,-0.525 0.262,-0.48L0.274,-0.538L0.126,-0.538L0.019,-0L0.175,-0L0.229,-0.273C0.248,-0.367 0.303,-0.411 0.382,-0.411C0.444,-0.411 0.474,-0.38 0.474,-0.325C0.474,-0.314 0.473,-0.301 0.47,-0.288L0.412,-0L0.568,-0L0.628,-0.298C0.633,-0.321 0.635,-0.343 0.635,-0.363C0.635,-0.482 0.557,-0.546 0.439,-0.546Z" style="fill:rgb(35,31,32);fill-rule:nonzero;"/>
            </g>
            <g transform="matrix(197.496,0,0,197.496,5396.86,593.233)">
                <path d="M0.603,-0.309C0.603,-0.453 0.504,-0.546 0.347,-0.546C0.16,-0.546 0.03,-0.413 0.03,-0.233C0.03,-0.087 0.137,0.008 0.305,0.008C0.387,0.008 0.468,-0.014 0.53,-0.064L0.465,-0.167C0.428,-0.135 0.376,-0.117 0.321,-0.117C0.232,-0.117 0.187,-0.154 0.182,-0.227L0.594,-0.227C0.599,-0.252 0.603,-0.28 0.603,-0.309ZM0.34,-0.429C0.412,-0.429 0.46,-0.389 0.46,-0.318L0.193,-0.318C0.214,-0.385 0.265,-0.429 0.34,-0.429Z" style="fill:rgb(35,31,32);fill-rule:nonzero;"/>
            </g>
            <g transform="matrix(197.496,0,0,197.496,5520.88,593.233)">
                <path d="M0.215,0.008C0.37,0.008 0.486,-0.057 0.486,-0.18C0.486,-0.359 0.202,-0.296 0.202,-0.375C0.202,-0.404 0.234,-0.428 0.306,-0.428C0.356,-0.428 0.415,-0.418 0.465,-0.387L0.521,-0.501C0.472,-0.529 0.397,-0.546 0.322,-0.546C0.165,-0.546 0.052,-0.478 0.052,-0.357C0.052,-0.175 0.337,-0.238 0.337,-0.162C0.337,-0.13 0.305,-0.11 0.232,-0.11C0.164,-0.11 0.091,-0.13 0.045,-0.161L-0.015,-0.048C0.03,-0.016 0.12,0.008 0.215,0.008Z" style="fill:rgb(35,31,32);fill-rule:nonzero;"/>
            </g>
            <g transform="matrix(197.496,0,0,197.496,5625.75,593.233)">
                <path d="M0.215,0.008C0.37,0.008 0.486,-0.057 0.486,-0.18C0.486,-0.359 0.202,-0.296 0.202,-0.375C0.202,-0.404 0.234,-0.428 0.306,-0.428C0.356,-0.428 0.415,-0.418 0.465,-0.387L0.521,-0.501C0.472,-0.529 0.397,-0.546 0.322,-0.546C0.165,-0.546 0.052,-0.478 0.052,-0.357C0.052,-0.175 0.337,-0.238 0.337,-0.162C0.337,-0.13 0.305,-0.11 0.232,-0.11C0.164,-0.11 0.091,-0.13 0.045,-0.161L-0.015,-0.048C0.03,-0.016 0.12,0.008 0.215,0.008Z" style="fill:rgb(35,31,32);fill-rule:nonzero;"/>
            </g>
        </g>
        <g transform="matrix(0.465686,0,0,0.465686,152.802,1202.74)">
            <g transform="matrix(197.496,0,0,197.496,813.179,593.233)">
                <path d="M0.273,0.012C0.468,0.012 0.596,-0.081 0.596,-0.226C0.596,-0.441 0.248,-0.381 0.249,-0.496C0.249,-0.546 0.304,-0.582 0.398,-0.582C0.467,-0.582 0.535,-0.564 0.588,-0.528L0.649,-0.652C0.588,-0.691 0.501,-0.712 0.407,-0.712C0.213,-0.712 0.087,-0.619 0.087,-0.475C0.087,-0.252 0.434,-0.312 0.434,-0.2C0.434,-0.149 0.378,-0.118 0.289,-0.118C0.206,-0.118 0.122,-0.144 0.058,-0.191L-0.008,-0.066C0.051,-0.022 0.159,0.012 0.273,0.012Z" style="fill:rgb(35,31,32);fill-rule:nonzero;"/>
            </g>
            <g transform="matrix(197.496,0,0,197.496,939.181,593.233)">
                <path d="M0.274,-0.406L0.408,-0.406L0.432,-0.526L0.298,-0.526L0.324,-0.657L0.168,-0.657L0.142,-0.526L0.059,-0.526L0.035,-0.406L0.118,-0.406L0.075,-0.189C0.072,-0.173 0.07,-0.157 0.07,-0.142C0.07,-0.048 0.138,0.008 0.238,0.008C0.285,0.008 0.333,-0 0.372,-0.024L0.349,-0.135C0.329,-0.123 0.307,-0.116 0.286,-0.116C0.247,-0.116 0.229,-0.135 0.229,-0.168C0.229,-0.175 0.229,-0.182 0.231,-0.19L0.274,-0.406Z" style="fill:rgb(35,31,32);fill-rule:nonzero;"/>
            </g>
            <g transform="matrix(197.496,0,0,197.496,1025.09,593.233)">
                <path d="M0.512,-0.538L0.457,-0.265C0.438,-0.171 0.384,-0.127 0.307,-0.127C0.246,-0.127 0.217,-0.157 0.217,-0.211C0.217,-0.223 0.218,-0.236 0.221,-0.25L0.278,-0.538L0.122,-0.538L0.063,-0.24C0.058,-0.217 0.056,-0.195 0.056,-0.175C0.056,-0.056 0.134,0.008 0.249,0.008C0.314,0.008 0.376,-0.013 0.424,-0.058L0.413,-0L0.561,-0L0.668,-0.538L0.512,-0.538Z" style="fill:rgb(35,31,32);fill-rule:nonzero;"/>
            </g>
            <g transform="matrix(197.496,0,0,197.496,1160.77,593.233)">
                <path d="M0.274,-0.406L0.408,-0.406L0.432,-0.526L0.298,-0.526L0.324,-0.657L0.168,-0.657L0.142,-0.526L0.059,-0.526L0.035,-0.406L0.118,-0.406L0.075,-0.189C0.072,-0.173 0.07,-0.157 0.07,-0.142C0.07,-0.048 0.138,0.008 0.238,0.008C0.285,0.008 0.333,-0 0.372,-0.024L0.349,-0.135C0.329,-0.123 0.307,-0.116 0.286,-0.116C0.247,-0.116 0.229,-0.135 0.229,-0.168C0.229,-0.175 0.229,-0.182 0.231,-0.19L0.274,-0.406Z" style="fill:rgb(35,31,32);fill-rule:nonzero;"/>
            </g>
            <g transform="matrix(197.496,0,0,197.496,1244.31,593.233)">
                <path d="M0.274,-0.406L0.408,-0.406L0.432,-0.526L0.298,-0.526L0.324,-0.657L0.168,-0.657L0.142,-0.526L0.059,-0.526L0.035,-0.406L0.118,-0.406L0.075,-0.189C0.072,-0.173 0.07,-0.157 0.07,-0.142C0.07,-0.048 0.138,0.008 0.238,0.008C0.285,0.008 0.333,-0 0.372,-0.024L0.349,-0.135C0.329,-0.123 0.307,-0.116 0.286,-0.116C0.247,-0.116 0.229,-0.135 0.229,-0.168C0.229,-0.175 0.229,-0.182 0.231,-0.19L0.274,-0.406Z" style="fill:rgb(35,31,32);fill-rule:nonzero;"/>
            </g>
            <g transform="matrix(197.496,0,0,197.496,1326.87,593.233)">
                <path d="M0.532,-0.538L0.515,-0.45C0.482,-0.518 0.413,-0.546 0.333,-0.546C0.161,-0.546 0.033,-0.417 0.033,-0.252C0.033,-0.111 0.138,-0.026 0.271,-0.026C0.337,-0.026 0.393,-0.047 0.435,-0.086L0.431,-0.063C0.412,0.028 0.363,0.076 0.255,0.076C0.179,0.076 0.108,0.053 0.066,0.018L-0.008,0.131C0.055,0.177 0.143,0.202 0.248,0.202C0.434,0.202 0.551,0.117 0.592,-0.09L0.681,-0.538L0.532,-0.538ZM0.313,-0.154C0.236,-0.154 0.19,-0.195 0.19,-0.26C0.19,-0.352 0.256,-0.417 0.348,-0.417C0.425,-0.417 0.469,-0.376 0.469,-0.311C0.469,-0.219 0.404,-0.154 0.313,-0.154Z" style="fill:rgb(35,31,32);fill-rule:nonzero;"/>
            </g>
            <g transform="matrix(197.496,0,0,197.496,1465.11,593.233)">
                <path d="M0.516,-0.538L0.502,-0.465C0.467,-0.521 0.405,-0.546 0.327,-0.546C0.161,-0.546 0.03,-0.414 0.03,-0.233C0.03,-0.08 0.137,0.008 0.262,0.008C0.328,0.008 0.384,-0.014 0.427,-0.053L0.417,-0L0.565,-0L0.672,-0.538L0.516,-0.538ZM0.31,-0.121C0.232,-0.121 0.187,-0.167 0.187,-0.24C0.187,-0.345 0.253,-0.417 0.345,-0.417C0.423,-0.417 0.468,-0.371 0.468,-0.298C0.468,-0.193 0.402,-0.121 0.31,-0.121Z" style="fill:rgb(35,31,32);fill-rule:nonzero;"/>
            </g>
            <g transform="matrix(197.496,0,0,197.496,1601.38,593.233)">
                <path d="M0.261,-0.474L0.274,-0.538L0.126,-0.538L0.019,-0L0.175,-0L0.227,-0.26C0.247,-0.361 0.306,-0.404 0.398,-0.404C0.411,-0.404 0.42,-0.403 0.434,-0.402L0.462,-0.546C0.375,-0.546 0.309,-0.526 0.261,-0.474Z" style="fill:rgb(35,31,32);fill-rule:nonzero;"/>
            </g>
            <g transform="matrix(197.496,0,0,197.496,1689.47,593.233)">
                <path d="M0.274,-0.406L0.408,-0.406L0.432,-0.526L0.298,-0.526L0.324,-0.657L0.168,-0.657L0.142,-0.526L0.059,-0.526L0.035,-0.406L0.118,-0.406L0.075,-0.189C0.072,-0.173 0.07,-0.157 0.07,-0.142C0.07,-0.048 0.138,0.008 0.238,0.008C0.285,0.008 0.333,-0 0.372,-0.024L0.349,-0.135C0.329,-0.123 0.307,-0.116 0.286,-0.116C0.247,-0.116 0.229,-0.135 0.229,-0.168C0.229,-0.175 0.229,-0.182 0.231,-0.19L0.274,-0.406Z" style="fill:rgb(35,31,32);fill-rule:nonzero;"/>
            </g>
        </g>
        <g transform="matrix(0.77662,0,0,0.77662,897.067,951.764)">
            <g transform="matrix(1.53912,-1.53912,1.53912,1.53912,-1163.66,1793.12)">
                <path d="M1551.81,768.863C1550.37,768.863 1548.95,768.902 1547.53,768.96C1547.58,827.25 1594.85,874.487 1653.15,874.487C1654.1,874.487 1655.04,874.44 1655.98,874.415C1655.99,873.963 1656,873.513 1656,873.059C1656,815.605 1609.26,768.863 1551.81,768.863Z" style="fill:rgb(39,39,39);fill-rule:nonzero;"/>
            </g>
            <g transform="matrix(1.53912,-1.53912,1.53912,1.53912,-1163.66,1793.12)">
                <path d="M1653.15,663.239C1639.52,663.239 1626.51,665.848 1614.55,670.548C1686.32,673.933 1744.91,728.522 1754.52,798.514C1757.27,789.104 1758.77,779.161 1758.77,768.863C1758.77,710.528 1711.48,663.239 1653.15,663.239Z" style="fill:rgb(39,39,39);fill-rule:nonzero;"/>
            </g>
            <g transform="matrix(1.53912,-1.53912,1.53912,1.53912,-1163.66,1793.12)">
                <path d="M1584.64,708.914C1578.06,708.914 1571.59,709.383 1565.26,710.284C1561.92,715.285 1559.01,720.594 1556.55,726.149C1558.29,726.083 1560.04,726.042 1561.8,726.042C1637.78,726.042 1699.65,787.564 1700.24,863.407C1706.65,860.209 1712.68,856.378 1718.26,851.997C1718.62,848.119 1718.81,844.197 1718.81,840.23C1718.81,767.822 1658.62,708.914 1584.64,708.914Z" style="fill:rgb(39,39,39);fill-rule:nonzero;"/>
            </g>
            <g transform="matrix(1.53912,-1.53912,1.53912,1.53912,-1163.66,1793.12)">
                <path d="M1561.8,737.461C1558.55,737.461 1555.34,737.61 1552.16,737.85C1550.22,744.178 1548.86,750.759 1548.14,757.531C1549.36,757.493 1550.58,757.444 1551.81,757.444C1615.56,757.444 1667.42,809.309 1667.42,873.059C1667.42,873.208 1667.41,873.353 1667.41,873.501C1674.79,872.504 1681.93,870.76 1688.75,868.321C1688.79,867.048 1688.83,865.777 1688.83,864.495C1688.83,794.448 1631.85,737.461 1561.8,737.461Z" style="fill:rgb(39,39,39);fill-rule:nonzero;"/>
            </g>
            <g transform="matrix(1.53912,-1.53912,1.53912,1.53912,-1163.66,1793.12)">
                <path d="M1607.47,681.794C1602.28,681.794 1597.17,682.113 1592.12,682.678C1585.88,687.106 1580.12,692.171 1574.99,697.818C1578.18,697.612 1581.39,697.495 1584.64,697.495C1664.91,697.495 1730.23,761.526 1730.23,840.23C1730.23,840.507 1730.22,840.781 1730.21,841.057C1735.64,835.27 1740.41,828.875 1744.43,821.98C1744.46,820.927 1744.5,819.879 1744.5,818.82C1744.5,743.264 1683.03,681.794 1607.47,681.794Z" style="fill:rgb(39,39,39);fill-rule:nonzero;"/>
            </g>
        </g>
        <g transform="matrix(0.11026,0,0,0.11026,443.651,1159.91)">
            <g transform="matrix(1.53912,-1.53912,1.53912,1.53912,-1163.66,1793.12)">
                <path d="M1551.81,768.863C1550.37,768.863 1548.95,768.902 1547.53,768.96C1547.58,827.25 1594.85,874.487 1653.15,874.487C1654.1,874.487 1655.04,874.44 1655.98,874.415C1655.99,873.963 1656,873.513 1656,873.059C1656,815.605 1609.26,768.863 1551.81,768.863Z" style="fill:rgb(39,39,39);fill-rule:nonzero;"/>
            </g>
            <g transform="matrix(1.53912,-1.53912,1.53912,1.53912,-1163.66,1793.12)">
                <path d="M1653.15,663.239C1639.52,663.239 1626.51,665.848 1614.55,670.548C1686.32,673.933 1744.91,728.522 1754.52,798.514C1757.27,789.104 1758.77,779.161 1758.77,768.863C1758.77,710.528 1711.48,663.239 1653.15,663.239Z" style="fill:rgb(39,39,39);fill-rule:nonzero;"/>
            </g>
            <g transform="matrix(1.53912,-1.53912,1.53912,1.53912,-1163.66,1793.12)">
                <path d="M1584.64,708.914C1578.06,708.914 1571.59,709.383 1565.26,710.284C1561.92,715.285 1559.01,720.594 1556.55,726.149C1558.29,726.083 1560.04,726.042 1561.8,726.042C1637.78,726.042 1699.65,787.564 1700.24,863.407C1706.65,860.209 1712.68,856.378 1718.26,851.997C1718.62,848.119 1718.81,844.197 1718.81,840.23C1718.81,767.822 1658.62,708.914 1584.64,708.914Z" style="fill:rgb(39,39,39);fill-rule:nonzero;"/>
            </g>
            <g transform="matrix(1.53912,-1.53912,1.53912,1.53912,-1163.66,1793.12)">
                <path d="M1561.8,737.461C1558.55,737.461 1555.34,737.61 1552.16,737.85C1550.22,744.178 1548.86,750.759 1548.14,757.531C1549.36,757.493 1550.58,757.444 1551.81,757.444C1615.56,757.444 1667.42,809.309 1667.42,873.059C1667.42,873.208 1667.41,873.353 1667.41,873.501C1674.79,872.504 1681.93,870.76 1688.75,868.321C1688.79,867.048 1688.83,865.777 1688.83,864.495C1688.83,794.448 1631.85,737.461 1561.8,737.461Z" style="fill:rgb(39,39,39);fill-rule:nonzero;"/>
            </g>
            <g transform="matrix(1.53912,-1.53912,1.53912,1.53912,-1163.66,1793.12)">
                <path d="M1607.47,681.794C1602.28,681.794 1597.17,682.113 1592.12,682.678C1585.88,687.106 1580.12,692.171 1574.99,697.818C1578.18,697.612 1581.39,697.495 1584.64,697.495C1664.91,697.495 1730.23,761.526 1730.23,840.23C1730.23,840.507 1730.22,840.781 1730.21,841.057C1735.64,835.27 1740.41,828.875 1744.43,821.98C1744.46,820.927 1744.5,819.879 1744.5,818.82C1744.5,743.264 1683.03,681.794 1607.47,681.794Z" style="fill:rgb(39,39,39);fill-rule:nonzero;"/>
            </g>
        </g>
    </g>
</svg>
