<svg xmlns="http://www.w3.org/2000/svg" xmlns:xlink="http://www.w3.org/1999/xlink" width="125" height="120" viewBox="0 0 125 120">
  <defs>
    <clipPath id="clip-path">
      <rect id="Rechteck_3734" data-name="Rechteck 3734" width="125" height="120" fill="#3c78ff"/>
    </clipPath>
  </defs>
  <g id="Gruppe_2663" data-name="Gruppe 2663" clip-path="url(#clip-path)">
    <path id="Pfad_6779" data-name="Pfad 6779" d="M7.452,62.775H2.406A2.407,2.407,0,0,1,0,60.371V55.326a2.408,2.408,0,0,1,2.406-2.4H7.452a2.407,2.407,0,0,1,2.4,2.4v5.045a2.407,2.407,0,0,1-2.4,2.4M2.406,54.066a1.262,1.262,0,0,0-1.261,1.26v5.045a1.262,1.262,0,0,0,1.261,1.26H7.452a1.261,1.261,0,0,0,1.26-1.26V55.326a1.261,1.261,0,0,0-1.26-1.26Zm5.047-6.222H2.406A2.407,2.407,0,0,1,0,45.44V40.394a2.407,2.407,0,0,1,2.406-2.4H7.452a2.407,2.407,0,0,1,2.4,2.4V45.44a2.407,2.407,0,0,1-2.4,2.4M2.406,39.136a1.261,1.261,0,0,0-1.261,1.259V45.44A1.262,1.262,0,0,0,2.406,46.7H7.452a1.261,1.261,0,0,0,1.26-1.259V40.394a1.26,1.26,0,0,0-1.26-1.259Z" transform="translate(0 -17.054)" fill="#3c78ff"/>
    <path id="Pfad_6780" data-name="Pfad 6780" d="M46.308,18.25c0-2.945-.5-6.044-2.4-7.943A6.53,6.53,0,0,0,39.332,8.68a6.2,6.2,0,0,0-5.541,2.635V0H31.816V27.588h1.975v-2.4a6.2,6.2,0,0,0,5.541,2.635,6.53,6.53,0,0,0,4.573-1.628c1.9-1.9,2.4-5,2.4-7.943m-1.977,0c0,3.875-.7,7.827-5.268,7.827s-5.271-3.952-5.271-7.827.7-7.827,5.271-7.827,5.268,3.952,5.268,7.827" transform="translate(-14.282)" fill="#3c78ff" fill-rule="evenodd"/>
    <path id="Pfad_6781" data-name="Pfad 6781" d="M90.781,16.171H88.612L83.846,32.523,78.5,16.171H76.561L71.214,32.523,66.448,16.171h-2.17l5.968,18.677h2.014L77.53,19.271,82.8,34.848h2.014Z" transform="translate(-28.855 -7.259)" fill="#3c78ff"/>
    <path id="Pfad_6782" data-name="Pfad 6782" d="M134.9,31.312l-2.711-2.6a4.575,4.575,0,0,1-3.758,1.86,4.432,4.432,0,0,1-3.643-1.744c-.853-1.085-1.162-2.518-1.162-4.8s.309-3.681,1.162-4.765a4.432,4.432,0,0,1,3.643-1.744,4.577,4.577,0,0,1,3.758,1.859l2.711-2.634a8.064,8.064,0,0,0-6.47-2.751c-4.419,0-8.757,2.674-8.757,10.035S124.016,34.1,128.434,34.1a8.1,8.1,0,0,0,6.47-2.79" transform="translate(-53.724 -6.281)" fill="#3c78ff"/>
    <path id="Pfad_6783" data-name="Pfad 6783" d="M168.4,24.028c0-3.293-.463-5.773-2.326-7.71a7.948,7.948,0,0,0-5.888-2.325,7.854,7.854,0,0,0-5.85,2.325c-1.86,1.938-2.326,4.418-2.326,7.71,0,3.333.465,5.813,2.326,7.75a7.852,7.852,0,0,0,5.85,2.325,7.947,7.947,0,0,0,5.888-2.325c1.862-1.937,2.326-4.417,2.326-7.75m-3.952,0c0,2.132-.154,4.186-1.356,5.386a4.033,4.033,0,0,1-2.905,1.162,3.944,3.944,0,0,1-2.868-1.162c-1.2-1.2-1.356-3.254-1.356-5.386s.155-4.183,1.356-5.385a3.913,3.913,0,0,1,2.868-1.124,4,4,0,0,1,2.905,1.124c1.2,1.2,1.356,3.255,1.356,5.385" transform="translate(-68.239 -6.282)" fill="#3c78ff" fill-rule="evenodd"/>
    <path id="Pfad_6784" data-name="Pfad 6784" d="M204.551,33.869V21.315a7.209,7.209,0,0,0-1.976-5.541,6.81,6.81,0,0,0-4.843-1.783A7.024,7.024,0,0,0,192.5,16.2V14.225h-3.875V33.869h3.952V21.9c0-3.024,1.861-4.379,4.069-4.379S200.6,18.836,200.6,21.9V33.869Z" transform="translate(-84.676 -6.281)" fill="#3c78ff" fill-rule="evenodd"/>
    <path id="Pfad_6785" data-name="Pfad 6785" d="M37.879,208.7l-.947-.912a2.637,2.637,0,0,1-2.189,1.085,2.578,2.578,0,0,1-2.207-1.085,5.585,5.585,0,0,1,0-5.111,2.583,2.583,0,0,1,2.207-1.085,2.617,2.617,0,0,1,2.189,1.066l.947-.891a3.768,3.768,0,0,0-3.136-1.414c-2.4,0-4.221,1.627-4.221,4.879s1.82,4.879,4.221,4.879a3.771,3.771,0,0,0,3.136-1.412" transform="translate(-13.701 -89.943)" fill="#3c78ff"/>
    <path id="Pfad_6786" data-name="Pfad 6786" d="M53.806,205.237a5.111,5.111,0,0,0-1.162-3.794,3.976,3.976,0,0,0-5.459,0,6.778,6.778,0,0,0,0,7.591,3.981,3.981,0,0,0,5.459,0,5.115,5.115,0,0,0,1.162-3.8m-1.394,0a4.147,4.147,0,0,1-.755,2.943,2.438,2.438,0,0,1-1.742.7,2.4,2.4,0,0,1-1.723-.7,5.975,5.975,0,0,1,0-5.885,2.4,2.4,0,0,1,1.723-.7,2.439,2.439,0,0,1,1.742.7,4.144,4.144,0,0,1,.755,2.942" transform="translate(-20.66 -89.942)" fill="#3c78ff" fill-rule="evenodd"/>
    <path id="Pfad_6787" data-name="Pfad 6787" d="M71.3,210v-6.1a3.521,3.521,0,0,0-.989-2.653,3.336,3.336,0,0,0-2.439-.891A3.436,3.436,0,0,0,65.2,201.52v-1.045H63.8V210H65.2v-5.866a2.359,2.359,0,1,1,4.705,0V210Z" transform="translate(-28.642 -89.942)" fill="#3c78ff" fill-rule="evenodd"/>
    <path id="Pfad_6788" data-name="Pfad 6788" d="M89.288,210v-6.1a3.522,3.522,0,0,0-.989-2.653,3.334,3.334,0,0,0-2.438-.891,3.436,3.436,0,0,0-2.672,1.162v-1.045H81.8V210h1.393v-5.866a2.359,2.359,0,1,1,4.7,0V210Z" transform="translate(-36.719 -89.942)" fill="#3c78ff" fill-rule="evenodd"/>
    <path id="Pfad_6789" data-name="Pfad 6789" d="M107.008,205.607v-.64c0-2.827-1.453-4.608-3.911-4.608-2.421,0-3.911,1.8-3.911,4.879,0,3.369,1.646,4.879,4.162,4.879a4.364,4.364,0,0,0,3.485-1.471l-.948-.833a3.126,3.126,0,0,1-2.5,1.083c-1.82,0-2.807-1.2-2.807-3.29Zm-1.394-1.045H100.58a4.017,4.017,0,0,1,.29-1.589,2.447,2.447,0,0,1,4.454,0,4.018,4.018,0,0,1,.29,1.589" transform="translate(-44.525 -89.943)" fill="#3c78ff" fill-rule="evenodd"/>
    <path id="Pfad_6790" data-name="Pfad 6790" d="M123.834,208.7l-.949-.912a2.637,2.637,0,0,1-2.188,1.085,2.577,2.577,0,0,1-2.207-1.085,5.567,5.567,0,0,1,0-5.111A2.583,2.583,0,0,1,120.7,201.6a2.616,2.616,0,0,1,2.188,1.066l.949-.891a3.772,3.772,0,0,0-3.137-1.414c-2.4,0-4.22,1.627-4.22,4.879s1.819,4.879,4.22,4.879a3.775,3.775,0,0,0,3.137-1.412" transform="translate(-52.287 -89.943)" fill="#3c78ff"/>
    <path id="Pfad_6791" data-name="Pfad 6791" d="M136.462,207.714v-1.2h-.735c-.891,0-1.3-.523-1.3-1.394v-5.809h2.034v-1.064h-2.034v-2.981h-1.392v2.981h-1.2v1.064h1.2v5.847a2.335,2.335,0,0,0,2.439,2.555Z" transform="translate(-59.182 -87.656)" fill="#3c78ff"/>
    <path id="Pfad_6792" data-name="Pfad 6792" d="M150.792,205.607v-.64c0-2.827-1.454-4.608-3.913-4.608-2.42,0-3.91,1.8-3.91,4.879,0,3.369,1.646,4.879,4.164,4.879a4.363,4.363,0,0,0,3.484-1.471l-.947-.833a3.129,3.129,0,0,1-2.5,1.083c-1.821,0-2.808-1.2-2.808-3.29Zm-1.4-1.045h-5.034a4.005,4.005,0,0,1,.292-1.589,2.446,2.446,0,0,1,4.452,0,4.007,4.007,0,0,1,.29,1.589" transform="translate(-64.18 -89.943)" fill="#3c78ff" fill-rule="evenodd"/>
    <path id="Pfad_6793" data-name="Pfad 6793" d="M168.145,206.625V192.841h-1.4V198.2a3.065,3.065,0,0,0-2.691-1.22,3.313,3.313,0,0,0-2.324.834c-.968.968-1.162,2.555-1.162,4.045s.194,3.079,1.162,4.047a3.32,3.32,0,0,0,2.324.833,3.086,3.086,0,0,0,2.711-1.258v1.141Zm-1.4-4.763c0,1.859-.309,3.64-2.381,3.64s-2.4-1.781-2.4-3.64.33-3.64,2.4-3.64,2.381,1.781,2.381,3.64" transform="translate(-72.082 -86.568)" fill="#3c78ff" fill-rule="evenodd"/>
    <path id="Pfad_6794" data-name="Pfad 6794" d="M42.287,161.024H40.776l-2.167,7.648-2.517-7.648h-1.2l-2.5,7.648-2.187-7.648H28.7l3.02,9.525h1.3l2.478-7.4,2.5,7.4h1.3Z" transform="translate(-12.882 -72.285)" fill="#3c78ff"/>
    <path id="Pfad_6795" data-name="Pfad 6795" d="M62.523,154.034H61.129v1.723h1.394Zm-4.106,0H57.024v1.723h1.394Zm5.112,13.378v-9.525H62.135v5.867a2.253,2.253,0,0,1-2.381,2.535c-1.433,0-2.323-.851-2.323-2.535v-5.867H56.036v6.079A3.557,3.557,0,0,0,57,166.637a3.382,3.382,0,0,0,2.46.891,3.493,3.493,0,0,0,2.692-1.181v1.064Z" transform="translate(-25.155 -69.147)" fill="#3c78ff" fill-rule="evenodd"/>
    <path id="Pfad_6796" data-name="Pfad 6796" d="M81.3,161.7a2.94,2.94,0,0,0-2.285-.891,3.2,3.2,0,0,0-2.671,1.279v-1.162H74.95v9.525h1.394v-5.845a2.327,2.327,0,0,1,2.285-2.557,1.992,1.992,0,0,1,1.646.7Z" transform="translate(-33.646 -72.19)" fill="#3c78ff" fill-rule="evenodd"/>
    <path id="Pfad_6797" data-name="Pfad 6797" d="M92.267,168.169v-1.2H91.53c-.891,0-1.3-.523-1.3-1.394v-5.809h2.033V158.7H90.234v-2.981H88.839V158.7h-1.2v1.064h1.2v5.847a2.336,2.336,0,0,0,2.44,2.555Z" transform="translate(-39.342 -69.904)" fill="#3c78ff"/>
    <path id="Pfad_6798" data-name="Pfad 6798" d="M103.575,168.169v-1.2h-.736c-.891,0-1.3-.523-1.3-1.394v-5.809h2.033V158.7h-2.033v-2.981h-1.393V158.7h-1.2v1.064h1.2v5.847a2.336,2.336,0,0,0,2.439,2.555Z" transform="translate(-44.418 -69.904)" fill="#3c78ff"/>
    <path id="Pfad_6799" data-name="Pfad 6799" d="M117.9,166.061v-.64c0-2.827-1.452-4.608-3.912-4.608-2.42,0-3.909,1.8-3.909,4.879,0,3.369,1.646,4.879,4.162,4.879a4.364,4.364,0,0,0,3.486-1.471l-.949-.833a3.125,3.125,0,0,1-2.5,1.083c-1.821,0-2.808-1.2-2.808-3.29Zm-1.394-1.045h-5.034a4,4,0,0,1,.291-1.589,2.446,2.446,0,0,1,4.453,0,4.037,4.037,0,0,1,.29,1.589" transform="translate(-49.417 -72.19)" fill="#3c78ff" fill-rule="evenodd"/>
    <path id="Pfad_6800" data-name="Pfad 6800" d="M141.529,170.455v-6.1A3.545,3.545,0,0,0,140.5,161.7a3.47,3.47,0,0,0-2.46-.891,3.645,3.645,0,0,0-3.136,1.588,3.142,3.142,0,0,0-2.924-1.588,3.476,3.476,0,0,0-2.691,1.162V160.93H127.9v9.525h1.394v-5.866a2.254,2.254,0,0,1,2.382-2.536,2.218,2.218,0,0,1,2.343,2.536v5.866h1.394v-6.021a2.365,2.365,0,1,1,4.723.154v5.866Z" transform="translate(-57.415 -72.19)" fill="#3c78ff" fill-rule="evenodd"/>
    <path id="Pfad_6801" data-name="Pfad 6801" d="M164.611,162.318c0-1.49-.194-3.077-1.162-4.045a3.312,3.312,0,0,0-2.323-.834,3.065,3.065,0,0,0-2.691,1.22V153.3h-1.394v13.785h1.394v-1.141a3.05,3.05,0,0,0,2.691,1.258,3.318,3.318,0,0,0,2.323-.833c.968-.968,1.162-2.555,1.162-4.047m-1.394,0c0,1.859-.311,3.64-2.382,3.64s-2.4-1.781-2.4-3.64.33-3.64,2.4-3.64,2.382,1.781,2.382,3.64" transform="translate(-70.497 -68.816)" fill="#3c78ff" fill-rule="evenodd"/>
    <path id="Pfad_6802" data-name="Pfad 6802" d="M182.016,166.061v-.64c0-2.827-1.452-4.608-3.912-4.608-2.42,0-3.911,1.8-3.911,4.879,0,3.369,1.646,4.879,4.164,4.879a4.361,4.361,0,0,0,3.484-1.471l-.949-.833a3.123,3.123,0,0,1-2.5,1.083c-1.819,0-2.806-1.2-2.806-3.29Zm-1.394-1.045h-5.034a4.008,4.008,0,0,1,.29-1.589,2.447,2.447,0,0,1,4.454,0,4.027,4.027,0,0,1,.29,1.589" transform="translate(-78.196 -72.19)" fill="#3c78ff" fill-rule="evenodd"/>
    <path id="Pfad_6803" data-name="Pfad 6803" d="M199.062,161.7a2.937,2.937,0,0,0-2.284-.891,3.2,3.2,0,0,0-2.672,1.279v-1.162h-1.394v9.525h1.394v-5.845a2.328,2.328,0,0,1,2.286-2.557,2,2,0,0,1,1.646.7Z" transform="translate(-86.51 -72.19)" fill="#3c78ff" fill-rule="evenodd"/>
    <path id="Pfad_6804" data-name="Pfad 6804" d="M211.878,170.746V160.93H210.5v1.123a3.006,3.006,0,0,0-2.672-1.239,3.312,3.312,0,0,0-2.323.834,7.357,7.357,0,0,0,0,7.937,3.274,3.274,0,0,0,2.3.851,3.071,3.071,0,0,0,2.672-1.239v1.492c0,1.625-.774,2.922-2.614,2.922a2.927,2.927,0,0,1-2.284-.949l-.91.891a4.2,4.2,0,0,0,3.234,1.279,3.79,3.79,0,0,0,3.968-4.085m-1.394-5.131c0,1.781-.29,3.563-2.361,3.563s-2.382-1.782-2.382-3.563.311-3.563,2.382-3.563,2.361,1.782,2.361,3.563" transform="translate(-91.733 -72.19)" fill="#3c78ff" fill-rule="evenodd"/>
    <path id="Pfad_6805" data-name="Pfad 6805" d="M225.29,164.432h-1.819v1.821h1.819Zm0,5.828h-1.819v1.819h1.819Z" transform="translate(-100.318 -73.815)" fill="#3c78ff" fill-rule="evenodd"/>
    <path id="Pfad_6806" data-name="Pfad 6806" d="M39.041,122.772c0-1.49-.194-3.077-1.162-4.045a3.312,3.312,0,0,0-2.324-.834,3.067,3.067,0,0,0-2.691,1.22V113.75H31.472v13.784h1.393v-1.141a3.051,3.051,0,0,0,2.691,1.258,3.319,3.319,0,0,0,2.324-.833c.968-.968,1.162-2.555,1.162-4.047m-1.394,0c0,1.859-.309,3.64-2.381,3.64s-2.4-1.781-2.4-3.64.331-3.64,2.4-3.64,2.381,1.782,2.381,3.64" transform="translate(-14.128 -51.063)" fill="#3c78ff" fill-rule="evenodd"/>
    <path id="Pfad_6807" data-name="Pfad 6807" d="M55.754,130.909v-6.466c0-2.072-1.258-3.175-3.815-3.175a3.691,3.691,0,0,0-3.368,1.414l.95.872a2.5,2.5,0,0,1,2.4-1.085c1.744,0,2.44.7,2.44,2.091v.911H51.495c-2.13,0-3.292,1.083-3.292,2.748a2.747,2.747,0,0,0,.716,1.938,3.4,3.4,0,0,0,2.691.87A3.342,3.342,0,0,0,54.36,130v.909Zm-1.394-3.367a2.2,2.2,0,0,1-.484,1.644,2.784,2.784,0,0,1-2.13.64c-1.511,0-2.187-.524-2.187-1.627s.7-1.684,2.129-1.684H54.36Z" transform="translate(-21.639 -54.438)" fill="#3c78ff" fill-rule="evenodd"/>
    <path id="Pfad_6808" data-name="Pfad 6808" d="M73.136,127.534V113.75H71.742v5.363a3.064,3.064,0,0,0-2.691-1.22,3.309,3.309,0,0,0-2.323.834c-.969.968-1.162,2.555-1.162,4.045s.193,3.079,1.162,4.047a3.316,3.316,0,0,0,2.323.833,3.084,3.084,0,0,0,2.711-1.258v1.141Zm-1.394-4.763c0,1.859-.31,3.64-2.381,3.64s-2.4-1.781-2.4-3.64.33-3.64,2.4-3.64,2.381,1.782,2.381,3.64" transform="translate(-29.433 -51.063)" fill="#3c78ff" fill-rule="evenodd"/>
    <path id="Pfad_6809" data-name="Pfad 6809" d="M90.753,126.516v-.64c0-2.827-1.453-4.608-3.911-4.608-2.42,0-3.911,1.8-3.911,4.879,0,3.369,1.646,4.879,4.163,4.879a4.36,4.36,0,0,0,3.484-1.471l-.947-.833a3.129,3.129,0,0,1-2.5,1.083c-1.821,0-2.808-1.2-2.808-3.29Zm-1.394-1.045H84.325a4,4,0,0,1,.291-1.589,2.446,2.446,0,0,1,4.453,0,4.017,4.017,0,0,1,.29,1.589" transform="translate(-37.228 -54.438)" fill="#3c78ff" fill-rule="evenodd"/>
    <path id="Pfad_6810" data-name="Pfad 6810" d="M108.942,130.909v-6.1a3.525,3.525,0,0,0-.988-2.653,3.341,3.341,0,0,0-2.44-.891,3.439,3.439,0,0,0-2.672,1.162v-1.045h-1.394v9.525h1.394v-5.866a2.241,2.241,0,0,1,2.363-2.536,2.218,2.218,0,0,1,2.342,2.536v5.866Z" transform="translate(-45.541 -54.438)" fill="#3c78ff" fill-rule="evenodd"/>
  </g>
</svg>
